<?xml version="1.0" encoding="UTF-8"?>
<svg width="260" height="1022" viewBox="0 0 260 1022" xmlns="http://www.w3.org/2000/svg"><rect class="export-background" x="0" y="0" width="260" height="1022" fill="#f5f5f5"/><g transform="translate(20, 38)"><rect x="17" y="21" width="186" height="924" fill="#e0e0e0"/><rect x="0" y="4" width="220" height="17" fill="#c0c0c0"/><rect x="0" y="945" width="220" height="17" fill="#c0c0c0"/><rect x="0" y="21" width="17" height="924" fill="#c0c0c0"/><rect x="203" y="21" width="17" height="924" fill="#c0c0c0"/><line x1="17" y1="21" x2="203" y2="21" stroke="#a0a0a0" stroke-width="1"/><line x1="17" y1="43" x2="203" y2="43" stroke="#a0a0a0" stroke-width="1"/><line x1="17" y1="65" x2="203" y2="65" stroke="#a0a0a0" stroke-width="1"/><line x1="17" y1="87" x2="203" y2="87" stroke="#a0a0a0" stroke-width="1"/><line x1="17" y1="109" x2="203" y2="109" stroke="#a0a0a0" stroke-width="1"/><line x1="17" y1="131" x2="203" y2="131" stroke="#a0a0a0" stroke-width="1"/><line x1="17" y1="153" x2="203" y2="153" stroke="#a0a0a0" stroke-width="1"/><line x1="17" y1="175" x2="203" y2="175" stroke="#a0a0a0" stroke-width="1"/><line x1="17" y1="197" x2="203" y2="197" stroke="#a0a0a0" stroke-width="1"/><line x1="17" y1="219" x2="203" y2="219" stroke="#a0a0a0" stroke-width="1"/><line x1="17" y1="241" x2="203" y2="241" stroke="#a0a0a0" stroke-width="1"/><line x1="17" y1="263" x2="203" y2="263" stroke="#a0a0a0" stroke-width="1"/><line x1="17" y1="285" x2="203" y2="285" stroke="#a0a0a0" stroke-width="1"/><line x1="17" y1="307" x2="203" y2="307" stroke="#a0a0a0" stroke-width="1"/><line x1="17" y1="329" x2="203" y2="329" stroke="#a0a0a0" stroke-width="1"/><line x1="17" y1="351" x2="203" y2="351" stroke="#a0a0a0" stroke-width="1"/><line x1="17" y1="373" x2="203" y2="373" stroke="#a0a0a0" stroke-width="1"/><line x1="17" y1="395" x2="203" y2="395" stroke="#a0a0a0" stroke-width="1"/><line x1="17" y1="417" x2="203" y2="417" stroke="#a0a0a0" stroke-width="1"/><line x1="17" y1="439" x2="203" y2="439" stroke="#a0a0a0" stroke-width="1"/><line x1="17" y1="461" x2="203" y2="461" stroke="#a0a0a0" stroke-width="1"/><line x1="17" y1="483" x2="203" y2="483" stroke="#a0a0a0" stroke-width="1"/><line x1="17" y1="505" x2="203" y2="505" stroke="#a0a0a0" stroke-width="1"/><line x1="17" y1="527" x2="203" y2="527" stroke="#a0a0a0" stroke-width="1"/><line x1="17" y1="549" x2="203" y2="549" stroke="#a0a0a0" stroke-width="1"/><line x1="17" y1="571" x2="203" y2="571" stroke="#a0a0a0" stroke-width="1"/><line x1="17" y1="593" x2="203" y2="593" stroke="#a0a0a0" stroke-width="1"/><line x1="17" y1="615" x2="203" y2="615" stroke="#a0a0a0" stroke-width="1"/><line x1="17" y1="637" x2="203" y2="637" stroke="#a0a0a0" stroke-width="1"/><line x1="17" y1="659" x2="203" y2="659" stroke="#a0a0a0" stroke-width="1"/><line x1="17" y1="681" x2="203" y2="681" stroke="#a0a0a0" stroke-width="1"/><line x1="17" y1="703" x2="203" y2="703" stroke="#a0a0a0" stroke-width="1"/><line x1="17" y1="725" x2="203" y2="725" stroke="#a0a0a0" stroke-width="1"/><line x1="17" y1="747" x2="203" y2="747" stroke="#a0a0a0" stroke-width="1"/><line x1="17" y1="769" x2="203" y2="769" stroke="#a0a0a0" stroke-width="1"/><line x1="17" y1="791" x2="203" y2="791" stroke="#a0a0a0" stroke-width="1"/><line x1="17" y1="813" x2="203" y2="813" stroke="#a0a0a0" stroke-width="1"/><line x1="17" y1="835" x2="203" y2="835" stroke="#a0a0a0" stroke-width="1"/><line x1="17" y1="857" x2="203" y2="857" stroke="#a0a0a0" stroke-width="1"/><line x1="17" y1="879" x2="203" y2="879" stroke="#a0a0a0" stroke-width="1"/><line x1="17" y1="901" x2="203" y2="901" stroke="#a0a0a0" stroke-width="1"/><line x1="17" y1="923" x2="203" y2="923" stroke="#a0a0a0" stroke-width="1"/><line x1="17" y1="945" x2="203" y2="945" stroke="#a0a0a0" stroke-width="1"/><rect x="13" y="23" width="3" height="4" rx="0.5" fill="#a0a0a0"/><rect x="204" y="23" width="3" height="4" rx="0.5" fill="#a0a0a0"/><rect x="13" y="30" width="3" height="4" rx="0.5" fill="#a0a0a0"/><rect x="204" y="30" width="3" height="4" rx="0.5" fill="#a0a0a0"/><rect x="13" y="37" width="3" height="4" rx="0.5" fill="#a0a0a0"/><rect x="204" y="37" width="3" height="4" rx="0.5" fill="#a0a0a0"/><rect x="13" y="45" width="3" height="4" rx="0.5" fill="#a0a0a0"/><rect x="204" y="45" width="3" height="4" rx="0.5" fill="#a0a0a0"/><rect x="13" y="52" width="3" height="4" rx="0.5" fill="#a0a0a0"/><rect x="204" y="52" width="3" height="4" rx="0.5" fill="#a0a0a0"/><rect x="13" y="59" width="3" height="4" rx="0.5" fill="#a0a0a0"/><rect x="204" y="59" width="3" height="4" rx="0.5" fill="#a0a0a0"/><rect x="13" y="67" width="3" height="4" rx="0.5" fill="#a0a0a0"/><rect x="204" y="67" width="3" height="4" rx="0.5" fill="#a0a0a0"/><rect x="13" y="74" width="3" height="4" rx="0.5" fill="#a0a0a0"/><rect x="204" y="74" width="3" height="4" rx="0.5" fill="#a0a0a0"/><rect x="13" y="81" width="3" height="4" rx="0.5" fill="#a0a0a0"/><rect x="204" y="81" width="3" height="4" rx="0.5" fill="#a0a0a0"/><rect x="13" y="89" width="3" height="4" rx="0.5" fill="#a0a0a0"/><rect x="204" y="89" width="3" height="4" rx="0.5" fill="#a0a0a0"/><rect x="13" y="96" width="3" height="4" rx="0.5" fill="#a0a0a0"/><rect x="204" y="96" width="3" height="4" rx="0.5" fill="#a0a0a0"/><rect x="13" y="103" width="3" height="4" rx="0.5" fill="#a0a0a0"/><rect x="204" y="103" width="3" height="4" rx="0.5" fill="#a0a0a0"/><rect x="13" y="111" width="3" height="4" rx="0.5" fill="#a0a0a0"/><rect x="204" y="111" width="3" height="4" rx="0.5" fill="#a0a0a0"/><rect x="13" y="118" width="3" height="4" rx="0.5" fill="#a0a0a0"/><rect x="204" y="118" width="3" height="4" rx="0.5" fill="#a0a0a0"/><rect x="13" y="125" width="3" height="4" rx="0.5" fill="#a0a0a0"/><rect x="204" y="125" width="3" height="4" rx="0.5" fill="#a0a0a0"/><rect x="13" y="133" width="3" height="4" rx="0.5" fill="#a0a0a0"/><rect x="204" y="133" width="3" height="4" rx="0.5" fill="#a0a0a0"/><rect x="13" y="140" width="3" height="4" rx="0.5" fill="#a0a0a0"/><rect x="204" y="140" width="3" height="4" rx="0.5" fill="#a0a0a0"/><rect x="13" y="147" width="3" height="4" rx="0.5" fill="#a0a0a0"/><rect x="204" y="147" width="3" height="4" rx="0.5" fill="#a0a0a0"/><rect x="13" y="155" width="3" height="4" rx="0.5" fill="#a0a0a0"/><rect x="204" y="155" width="3" height="4" rx="0.5" fill="#a0a0a0"/><rect x="13" y="162" width="3" height="4" rx="0.5" fill="#a0a0a0"/><rect x="204" y="162" width="3" height="4" rx="0.5" fill="#a0a0a0"/><rect x="13" y="169" width="3" height="4" rx="0.5" fill="#a0a0a0"/><rect x="204" y="169" width="3" height="4" rx="0.5" fill="#a0a0a0"/><rect x="13" y="177" width="3" height="4" rx="0.5" fill="#a0a0a0"/><rect x="204" y="177" width="3" height="4" rx="0.5" fill="#a0a0a0"/><rect x="13" y="184" width="3" height="4" rx="0.5" fill="#a0a0a0"/><rect x="204" y="184" width="3" height="4" rx="0.5" fill="#a0a0a0"/><rect x="13" y="191" width="3" height="4" rx="0.5" fill="#a0a0a0"/><rect x="204" y="191" width="3" height="4" rx="0.5" fill="#a0a0a0"/><rect x="13" y="199" width="3" height="4" rx="0.5" fill="#a0a0a0"/><rect x="204" y="199" width="3" height="4" rx="0.5" fill="#a0a0a0"/><rect x="13" y="206" width="3" height="4" rx="0.5" fill="#a0a0a0"/><rect x="204" y="206" width="3" height="4" rx="0.5" fill="#a0a0a0"/><rect x="13" y="213" width="3" height="4" rx="0.5" fill="#a0a0a0"/><rect x="204" y="213" width="3" height="4" rx="0.5" fill="#a0a0a0"/><rect x="13" y="221" width="3" height="4" rx="0.5" fill="#a0a0a0"/><rect x="204" y="221" width="3" height="4" rx="0.5" fill="#a0a0a0"/><rect x="13" y="228" width="3" height="4" rx="0.5" fill="#a0a0a0"/><rect x="204" y="228" width="3" height="4" rx="0.5" fill="#a0a0a0"/><rect x="13" y="235" width="3" height="4" rx="0.5" fill="#a0a0a0"/><rect x="204" y="235" width="3" height="4" rx="0.5" fill="#a0a0a0"/><rect x="13" y="243" width="3" height="4" rx="0.5" fill="#a0a0a0"/><rect x="204" y="243" width="3" height="4" rx="0.5" fill="#a0a0a0"/><rect x="13" y="250" width="3" height="4" rx="0.5" fill="#a0a0a0"/><rect x="204" y="250" width="3" height="4" rx="0.5" fill="#a0a0a0"/><rect x="13" y="257" width="3" height="4" rx="0.5" fill="#a0a0a0"/><rect x="204" y="257" width="3" height="4" rx="0.5" fill="#a0a0a0"/><rect x="13" y="265" width="3" height="4" rx="0.5" fill="#a0a0a0"/><rect x="204" y="265" width="3" height="4" rx="0.5" fill="#a0a0a0"/><rect x="13" y="272" width="3" height="4" rx="0.5" fill="#a0a0a0"/><rect x="204" y="272" width="3" height="4" rx="0.5" fill="#a0a0a0"/><rect x="13" y="279" width="3" height="4" rx="0.5" fill="#a0a0a0"/><rect x="204" y="279" width="3" height="4" rx="0.5" fill="#a0a0a0"/><rect x="13" y="287" width="3" height="4" rx="0.5" fill="#a0a0a0"/><rect x="204" y="287" width="3" height="4" rx="0.5" fill="#a0a0a0"/><rect x="13" y="294" width="3" height="4" rx="0.5" fill="#a0a0a0"/><rect x="204" y="294" width="3" height="4" rx="0.5" fill="#a0a0a0"/><rect x="13" y="301" width="3" height="4" rx="0.5" fill="#a0a0a0"/><rect x="204" y="301" width="3" height="4" rx="0.5" fill="#a0a0a0"/><rect x="13" y="309" width="3" height="4" rx="0.5" fill="#a0a0a0"/><rect x="204" y="309" width="3" height="4" rx="0.5" fill="#a0a0a0"/><rect x="13" y="316" width="3" height="4" rx="0.5" fill="#a0a0a0"/><rect x="204" y="316" width="3" height="4" rx="0.5" fill="#a0a0a0"/><rect x="13" y="323" width="3" height="4" rx="0.5" fill="#a0a0a0"/><rect x="204" y="323" width="3" height="4" rx="0.5" fill="#a0a0a0"/><rect x="13" y="331" width="3" height="4" rx="0.5" fill="#a0a0a0"/><rect x="204" y="331" width="3" height="4" rx="0.5" fill="#a0a0a0"/><rect x="13" y="338" width="3" height="4" rx="0.5" fill="#a0a0a0"/><rect x="204" y="338" width="3" height="4" rx="0.5" fill="#a0a0a0"/><rect x="13" y="345" width="3" height="4" rx="0.5" fill="#a0a0a0"/><rect x="204" y="345" width="3" height="4" rx="0.5" fill="#a0a0a0"/><rect x="13" y="353" width="3" height="4" rx="0.5" fill="#a0a0a0"/><rect x="204" y="353" width="3" height="4" rx="0.5" fill="#a0a0a0"/><rect x="13" y="360" width="3" height="4" rx="0.5" fill="#a0a0a0"/><rect x="204" y="360" width="3" height="4" rx="0.5" fill="#a0a0a0"/><rect x="13" y="367" width="3" height="4" rx="0.5" fill="#a0a0a0"/><rect x="204" y="367" width="3" height="4" rx="0.5" fill="#a0a0a0"/><rect x="13" y="375" width="3" height="4" rx="0.5" fill="#a0a0a0"/><rect x="204" y="375" width="3" height="4" rx="0.5" fill="#a0a0a0"/><rect x="13" y="382" width="3" height="4" rx="0.5" fill="#a0a0a0"/><rect x="204" y="382" width="3" height="4" rx="0.5" fill="#a0a0a0"/><rect x="13" y="389" width="3" height="4" rx="0.5" fill="#a0a0a0"/><rect x="204" y="389" width="3" height="4" rx="0.5" fill="#a0a0a0"/><rect x="13" y="397" width="3" height="4" rx="0.5" fill="#a0a0a0"/><rect x="204" y="397" width="3" height="4" rx="0.5" fill="#a0a0a0"/><rect x="13" y="404" width="3" height="4" rx="0.5" fill="#a0a0a0"/><rect x="204" y="404" width="3" height="4" rx="0.5" fill="#a0a0a0"/><rect x="13" y="411" width="3" height="4" rx="0.5" fill="#a0a0a0"/><rect x="204" y="411" width="3" height="4" rx="0.5" fill="#a0a0a0"/><rect x="13" y="419" width="3" height="4" rx="0.5" fill="#a0a0a0"/><rect x="204" y="419" width="3" height="4" rx="0.5" fill="#a0a0a0"/><rect x="13" y="426" width="3" height="4" rx="0.5" fill="#a0a0a0"/><rect x="204" y="426" width="3" height="4" rx="0.5" fill="#a0a0a0"/><rect x="13" y="433" width="3" height="4" rx="0.5" fill="#a0a0a0"/><rect x="204" y="433" width="3" height="4" rx="0.5" fill="#a0a0a0"/><rect x="13" y="441" width="3" height="4" rx="0.5" fill="#a0a0a0"/><rect x="204" y="441" width="3" height="4" rx="0.5" fill="#a0a0a0"/><rect x="13" y="448" width="3" height="4" rx="0.5" fill="#a0a0a0"/><rect x="204" y="448" width="3" height="4" rx="0.5" fill="#a0a0a0"/><rect x="13" y="455" width="3" height="4" rx="0.5" fill="#a0a0a0"/><rect x="204" y="455" width="3" height="4" rx="0.5" fill="#a0a0a0"/><rect x="13" y="463" width="3" height="4" rx="0.5" fill="#a0a0a0"/><rect x="204" y="463" width="3" height="4" rx="0.5" fill="#a0a0a0"/><rect x="13" y="470" width="3" height="4" rx="0.5" fill="#a0a0a0"/><rect x="204" y="470" width="3" height="4" rx="0.5" fill="#a0a0a0"/><rect x="13" y="477" width="3" height="4" rx="0.5" fill="#a0a0a0"/><rect x="204" y="477" width="3" height="4" rx="0.5" fill="#a0a0a0"/><rect x="13" y="485" width="3" height="4" rx="0.5" fill="#a0a0a0"/><rect x="204" y="485" width="3" height="4" rx="0.5" fill="#a0a0a0"/><rect x="13" y="492" width="3" height="4" rx="0.5" fill="#a0a0a0"/><rect x="204" y="492" width="3" height="4" rx="0.5" fill="#a0a0a0"/><rect x="13" y="499" width="3" height="4" rx="0.5" fill="#a0a0a0"/><rect x="204" y="499" width="3" height="4" rx="0.5" fill="#a0a0a0"/><rect x="13" y="507" width="3" height="4" rx="0.5" fill="#a0a0a0"/><rect x="204" y="507" width="3" height="4" rx="0.5" fill="#a0a0a0"/><rect x="13" y="514" width="3" height="4" rx="0.5" fill="#a0a0a0"/><rect x="204" y="514" width="3" height="4" rx="0.5" fill="#a0a0a0"/><rect x="13" y="521" width="3" height="4" rx="0.5" fill="#a0a0a0"/><rect x="204" y="521" width="3" height="4" rx="0.5" fill="#a0a0a0"/><rect x="13" y="529" width="3" height="4" rx="0.5" fill="#a0a0a0"/><rect x="204" y="529" width="3" height="4" rx="0.5" fill="#a0a0a0"/><rect x="13" y="536" width="3" height="4" rx="0.5" fill="#a0a0a0"/><rect x="204" y="536" width="3" height="4" rx="0.5" fill="#a0a0a0"/><rect x="13" y="543" width="3" height="4" rx="0.5" fill="#a0a0a0"/><rect x="204" y="543" width="3" height="4" rx="0.5" fill="#a0a0a0"/><rect x="13" y="551" width="3" height="4" rx="0.5" fill="#a0a0a0"/><rect x="204" y="551" width="3" height="4" rx="0.5" fill="#a0a0a0"/><rect x="13" y="558" width="3" height="4" rx="0.5" fill="#a0a0a0"/><rect x="204" y="558" width="3" height="4" rx="0.5" fill="#a0a0a0"/><rect x="13" y="565" width="3" height="4" rx="0.5" fill="#a0a0a0"/><rect x="204" y="565" width="3" height="4" rx="0.5" fill="#a0a0a0"/><rect x="13" y="573" width="3" height="4" rx="0.5" fill="#a0a0a0"/><rect x="204" y="573" width="3" height="4" rx="0.5" fill="#a0a0a0"/><rect x="13" y="580" width="3" height="4" rx="0.5" fill="#a0a0a0"/><rect x="204" y="580" width="3" height="4" rx="0.5" fill="#a0a0a0"/><rect x="13" y="587" width="3" height="4" rx="0.5" fill="#a0a0a0"/><rect x="204" y="587" width="3" height="4" rx="0.5" fill="#a0a0a0"/><rect x="13" y="595" width="3" height="4" rx="0.5" fill="#a0a0a0"/><rect x="204" y="595" width="3" height="4" rx="0.5" fill="#a0a0a0"/><rect x="13" y="602" width="3" height="4" rx="0.5" fill="#a0a0a0"/><rect x="204" y="602" width="3" height="4" rx="0.5" fill="#a0a0a0"/><rect x="13" y="609" width="3" height="4" rx="0.5" fill="#a0a0a0"/><rect x="204" y="609" width="3" height="4" rx="0.5" fill="#a0a0a0"/><rect x="13" y="617" width="3" height="4" rx="0.5" fill="#a0a0a0"/><rect x="204" y="617" width="3" height="4" rx="0.5" fill="#a0a0a0"/><rect x="13" y="624" width="3" height="4" rx="0.5" fill="#a0a0a0"/><rect x="204" y="624" width="3" height="4" rx="0.5" fill="#a0a0a0"/><rect x="13" y="631" width="3" height="4" rx="0.5" fill="#a0a0a0"/><rect x="204" y="631" width="3" height="4" rx="0.5" fill="#a0a0a0"/><rect x="13" y="639" width="3" height="4" rx="0.5" fill="#a0a0a0"/><rect x="204" y="639" width="3" height="4" rx="0.5" fill="#a0a0a0"/><rect x="13" y="646" width="3" height="4" rx="0.5" fill="#a0a0a0"/><rect x="204" y="646" width="3" height="4" rx="0.5" fill="#a0a0a0"/><rect x="13" y="653" width="3" height="4" rx="0.5" fill="#a0a0a0"/><rect x="204" y="653" width="3" height="4" rx="0.5" fill="#a0a0a0"/><rect x="13" y="661" width="3" height="4" rx="0.5" fill="#a0a0a0"/><rect x="204" y="661" width="3" height="4" rx="0.5" fill="#a0a0a0"/><rect x="13" y="668" width="3" height="4" rx="0.5" fill="#a0a0a0"/><rect x="204" y="668" width="3" height="4" rx="0.5" fill="#a0a0a0"/><rect x="13" y="675" width="3" height="4" rx="0.5" fill="#a0a0a0"/><rect x="204" y="675" width="3" height="4" rx="0.5" fill="#a0a0a0"/><rect x="13" y="683" width="3" height="4" rx="0.5" fill="#a0a0a0"/><rect x="204" y="683" width="3" height="4" rx="0.5" fill="#a0a0a0"/><rect x="13" y="690" width="3" height="4" rx="0.5" fill="#a0a0a0"/><rect x="204" y="690" width="3" height="4" rx="0.5" fill="#a0a0a0"/><rect x="13" y="697" width="3" height="4" rx="0.5" fill="#a0a0a0"/><rect x="204" y="697" width="3" height="4" rx="0.5" fill="#a0a0a0"/><rect x="13" y="705" width="3" height="4" rx="0.5" fill="#a0a0a0"/><rect x="204" y="705" width="3" height="4" rx="0.5" fill="#a0a0a0"/><rect x="13" y="712" width="3" height="4" rx="0.5" fill="#a0a0a0"/><rect x="204" y="712" width="3" height="4" rx="0.5" fill="#a0a0a0"/><rect x="13" y="719" width="3" height="4" rx="0.5" fill="#a0a0a0"/><rect x="204" y="719" width="3" height="4" rx="0.5" fill="#a0a0a0"/><rect x="13" y="727" width="3" height="4" rx="0.5" fill="#a0a0a0"/><rect x="204" y="727" width="3" height="4" rx="0.5" fill="#a0a0a0"/><rect x="13" y="734" width="3" height="4" rx="0.5" fill="#a0a0a0"/><rect x="204" y="734" width="3" height="4" rx="0.5" fill="#a0a0a0"/><rect x="13" y="741" width="3" height="4" rx="0.5" fill="#a0a0a0"/><rect x="204" y="741" width="3" height="4" rx="0.5" fill="#a0a0a0"/><rect x="13" y="749" width="3" height="4" rx="0.5" fill="#a0a0a0"/><rect x="204" y="749" width="3" height="4" rx="0.5" fill="#a0a0a0"/><rect x="13" y="756" width="3" height="4" rx="0.5" fill="#a0a0a0"/><rect x="204" y="756" width="3" height="4" rx="0.5" fill="#a0a0a0"/><rect x="13" y="763" width="3" height="4" rx="0.5" fill="#a0a0a0"/><rect x="204" y="763" width="3" height="4" rx="0.5" fill="#a0a0a0"/><rect x="13" y="771" width="3" height="4" rx="0.5" fill="#a0a0a0"/><rect x="204" y="771" width="3" height="4" rx="0.5" fill="#a0a0a0"/><rect x="13" y="778" width="3" height="4" rx="0.5" fill="#a0a0a0"/><rect x="204" y="778" width="3" height="4" rx="0.5" fill="#a0a0a0"/><rect x="13" y="785" width="3" height="4" rx="0.5" fill="#a0a0a0"/><rect x="204" y="785" width="3" height="4" rx="0.5" fill="#a0a0a0"/><rect x="13" y="793" width="3" height="4" rx="0.5" fill="#a0a0a0"/><rect x="204" y="793" width="3" height="4" rx="0.5" fill="#a0a0a0"/><rect x="13" y="800" width="3" height="4" rx="0.5" fill="#a0a0a0"/><rect x="204" y="800" width="3" height="4" rx="0.5" fill="#a0a0a0"/><rect x="13" y="807" width="3" height="4" rx="0.5" fill="#a0a0a0"/><rect x="204" y="807" width="3" height="4" rx="0.5" fill="#a0a0a0"/><rect x="13" y="815" width="3" height="4" rx="0.5" fill="#a0a0a0"/><rect x="204" y="815" width="3" height="4" rx="0.5" fill="#a0a0a0"/><rect x="13" y="822" width="3" height="4" rx="0.5" fill="#a0a0a0"/><rect x="204" y="822" width="3" height="4" rx="0.5" fill="#a0a0a0"/><rect x="13" y="829" width="3" height="4" rx="0.5" fill="#a0a0a0"/><rect x="204" y="829" width="3" height="4" rx="0.5" fill="#a0a0a0"/><rect x="13" y="837" width="3" height="4" rx="0.5" fill="#a0a0a0"/><rect x="204" y="837" width="3" height="4" rx="0.5" fill="#a0a0a0"/><rect x="13" y="844" width="3" height="4" rx="0.5" fill="#a0a0a0"/><rect x="204" y="844" width="3" height="4" rx="0.5" fill="#a0a0a0"/><rect x="13" y="851" width="3" height="4" rx="0.5" fill="#a0a0a0"/><rect x="204" y="851" width="3" height="4" rx="0.5" fill="#a0a0a0"/><rect x="13" y="859" width="3" height="4" rx="0.5" fill="#a0a0a0"/><rect x="204" y="859" width="3" height="4" rx="0.5" fill="#a0a0a0"/><rect x="13" y="866" width="3" height="4" rx="0.5" fill="#a0a0a0"/><rect x="204" y="866" width="3" height="4" rx="0.5" fill="#a0a0a0"/><rect x="13" y="873" width="3" height="4" rx="0.5" fill="#a0a0a0"/><rect x="204" y="873" width="3" height="4" rx="0.5" fill="#a0a0a0"/><rect x="13" y="881" width="3" height="4" rx="0.5" fill="#a0a0a0"/><rect x="204" y="881" width="3" height="4" rx="0.5" fill="#a0a0a0"/><rect x="13" y="888" width="3" height="4" rx="0.5" fill="#a0a0a0"/><rect x="204" y="888" width="3" height="4" rx="0.5" fill="#a0a0a0"/><rect x="13" y="895" width="3" height="4" rx="0.5" fill="#a0a0a0"/><rect x="204" y="895" width="3" height="4" rx="0.5" fill="#a0a0a0"/><rect x="13" y="903" width="3" height="4" rx="0.5" fill="#a0a0a0"/><rect x="204" y="903" width="3" height="4" rx="0.5" fill="#a0a0a0"/><rect x="13" y="910" width="3" height="4" rx="0.5" fill="#a0a0a0"/><rect x="204" y="910" width="3" height="4" rx="0.5" fill="#a0a0a0"/><rect x="13" y="917" width="3" height="4" rx="0.5" fill="#a0a0a0"/><rect x="204" y="917" width="3" height="4" rx="0.5" fill="#a0a0a0"/><rect x="13" y="925" width="3" height="4" rx="0.5" fill="#a0a0a0"/><rect x="204" y="925" width="3" height="4" rx="0.5" fill="#a0a0a0"/><rect x="13" y="932" width="3" height="4" rx="0.5" fill="#a0a0a0"/><rect x="204" y="932" width="3" height="4" rx="0.5" fill="#a0a0a0"/><rect x="13" y="939" width="3" height="4" rx="0.5" fill="#a0a0a0"/><rect x="204" y="939" width="3" height="4" rx="0.5" fill="#a0a0a0"/><text x="8.5" y="32" fill="#1a1a1a" font-size="10" text-anchor="middle" dominant-baseline="middle" font-family="system-ui, sans-serif">42</text><text x="8.5" y="54" fill="#1a1a1a" font-size="10" text-anchor="middle" dominant-baseline="middle" font-family="system-ui, sans-serif">41</text><text x="8.5" y="76" fill="#1a1a1a" font-size="10" text-anchor="middle" dominant-baseline="middle" font-family="system-ui, sans-serif">40</text><text x="8.5" y="98" fill="#1a1a1a" font-size="10" text-anchor="middle" dominant-baseline="middle" font-family="system-ui, sans-serif">39</text><text x="8.5" y="120" fill="#1a1a1a" font-size="10" text-anchor="middle" dominant-baseline="middle" font-family="system-ui, sans-serif">38</text><text x="8.5" y="142" fill="#1a1a1a" font-size="10" text-anchor="middle" dominant-baseline="middle" font-family="system-ui, sans-serif">37</text><text x="8.5" y="164" fill="#1a1a1a" font-size="10" text-anchor="middle" dominant-baseline="middle" font-family="system-ui, sans-serif">36</text><text x="8.5" y="186" fill="#1a1a1a" font-size="10" text-anchor="middle" dominant-baseline="middle" font-family="system-ui, sans-serif">35</text><text x="8.5" y="208" fill="#1a1a1a" font-size="10" text-anchor="middle" dominant-baseline="middle" font-family="system-ui, sans-serif">34</text><text x="8.5" y="230" fill="#1a1a1a" font-size="10" text-anchor="middle" dominant-baseline="middle" font-family="system-ui, sans-serif">33</text><text x="8.5" y="252" fill="#1a1a1a" font-size="10" text-anchor="middle" dominant-baseline="middle" font-family="system-ui, sans-serif">32</text><text x="8.5" y="274" fill="#1a1a1a" font-size="10" text-anchor="middle" dominant-baseline="middle" font-family="system-ui, sans-serif">31</text><text x="8.5" y="296" fill="#1a1a1a" font-size="10" text-anchor="middle" dominant-baseline="middle" font-family="system-ui, sans-serif">30</text><text x="8.5" y="318" fill="#1a1a1a" font-size="10" text-anchor="middle" dominant-baseline="middle" font-family="system-ui, sans-serif">29</text><text x="8.5" y="340" fill="#1a1a1a" font-size="10" text-anchor="middle" dominant-baseline="middle" font-family="system-ui, sans-serif">28</text><text x="8.5" y="362" fill="#1a1a1a" font-size="10" text-anchor="middle" dominant-baseline="middle" font-family="system-ui, sans-serif">27</text><text x="8.5" y="384" fill="#1a1a1a" font-size="10" text-anchor="middle" dominant-baseline="middle" font-family="system-ui, sans-serif">26</text><text x="8.5" y="406" fill="#1a1a1a" font-size="10" text-anchor="middle" dominant-baseline="middle" font-family="system-ui, sans-serif">25</text><text x="8.5" y="428" fill="#1a1a1a" font-size="10" text-anchor="middle" dominant-baseline="middle" font-family="system-ui, sans-serif">24</text><text x="8.5" y="450" fill="#1a1a1a" font-size="10" text-anchor="middle" dominant-baseline="middle" font-family="system-ui, sans-serif">23</text><text x="8.5" y="472" fill="#1a1a1a" font-size="10" text-anchor="middle" dominant-baseline="middle" font-family="system-ui, sans-serif">22</text><text x="8.5" y="494" fill="#1a1a1a" font-size="10" text-anchor="middle" dominant-baseline="middle" font-family="system-ui, sans-serif">21</text><text x="8.5" y="516" fill="#1a1a1a" font-size="10" text-anchor="middle" dominant-baseline="middle" font-family="system-ui, sans-serif">20</text><text x="8.5" y="538" fill="#1a1a1a" font-size="10" text-anchor="middle" dominant-baseline="middle" font-family="system-ui, sans-serif">19</text><text x="8.5" y="560" fill="#1a1a1a" font-size="10" text-anchor="middle" dominant-baseline="middle" font-family="system-ui, sans-serif">18</text><text x="8.5" y="582" fill="#1a1a1a" font-size="10" text-anchor="middle" dominant-baseline="middle" font-family="system-ui, sans-serif">17</text><text x="8.5" y="604" fill="#1a1a1a" font-size="10" text-anchor="middle" dominant-baseline="middle" font-family="system-ui, sans-serif">16</text><text x="8.5" y="626" fill="#1a1a1a" font-size="10" text-anchor="middle" dominant-baseline="middle" font-family="system-ui, sans-serif">15</text><text x="8.5" y="648" fill="#1a1a1a" font-size="10" text-anchor="middle" dominant-baseline="middle" font-family="system-ui, sans-serif">14</text><text x="8.5" y="670" fill="#1a1a1a" font-size="10" text-anchor="middle" dominant-baseline="middle" font-family="system-ui, sans-serif">13</text><text x="8.5" y="692" fill="#1a1a1a" font-size="10" text-anchor="middle" dominant-baseline="middle" font-family="system-ui, sans-serif">12</text><text x="8.5" y="714" fill="#1a1a1a" font-size="10" text-anchor="middle" dominant-baseline="middle" font-family="system-ui, sans-serif">11</text><text x="8.5" y="736" fill="#1a1a1a" font-size="10" text-anchor="middle" dominant-baseline="middle" font-family="system-ui, sans-serif">10</text><text x="8.5" y="758" fill="#1a1a1a" font-size="10" text-anchor="middle" dominant-baseline="middle" font-family="system-ui, sans-serif">9</text><text x="8.5" y="780" fill="#1a1a1a" font-size="10" text-anchor="middle" dominant-baseline="middle" font-family="system-ui, sans-serif">8</text><text x="8.5" y="802" fill="#1a1a1a" font-size="10" text-anchor="middle" dominant-baseline="middle" font-family="system-ui, sans-serif">7</text><text x="8.5" y="824" fill="#1a1a1a" font-size="10" text-anchor="middle" dominant-baseline="middle" font-family="system-ui, sans-serif">6</text><text x="8.5" y="846" fill="#1a1a1a" font-size="10" text-anchor="middle" dominant-baseline="middle" font-family="system-ui, sans-serif">5</text><text x="8.5" y="868" fill="#1a1a1a" font-size="10" text-anchor="middle" dominant-baseline="middle" font-family="system-ui, sans-serif">4</text><text x="8.5" y="890" fill="#1a1a1a" font-size="10" text-anchor="middle" dominant-baseline="middle" font-family="system-ui, sans-serif">3</text><text x="8.5" y="912" fill="#1a1a1a" font-size="10" text-anchor="middle" dominant-baseline="middle" font-family="system-ui, sans-serif">2</text><text x="8.5" y="934" fill="#1a1a1a" font-size="10" text-anchor="middle" dominant-baseline="middle" font-family="system-ui, sans-serif">1</text><rect x="19" y="22" width="182" height="20" fill="#6272A4" rx="2" ry="2"/><svg x="23" y="26" width="12" height="12" viewBox="0 0 16 16"><circle cx="4" cy="5" r="1.5" fill="rgba(255, 255, 255, 0.85)"/><circle cx="8" cy="5" r="1.5" fill="rgba(255, 255, 255, 0.85)"/><circle cx="12" cy="5" r="1.5" fill="rgba(255, 255, 255, 0.85)"/><circle cx="4" cy="11" r="1.5" fill="rgba(255, 255, 255, 0.85)"/><circle cx="8" cy="11" r="1.5" fill="rgba(255, 255, 255, 0.85)"/><circle cx="12" cy="11" r="1.5" fill="rgba(255, 255, 255, 0.85)"/></svg><text x="110" y="32" fill="#ffffff" font-size="11" text-anchor="middle" dominant-baseline="middle" font-family="system-ui, sans-serif">Patch Panel (24-Port)</text><rect x="19" y="264" width="182" height="42" fill="#4A7A8A" rx="2" ry="2"/><svg x="23" y="279" width="12" height="12" viewBox="0 0 16 16"><rect x="2" y="3" width="12" height="3" rx="0.5" fill="rgba(255, 255, 255, 0.85)"/><rect x="2" y="7" width="12" height="3" rx="0.5" fill="rgba(255, 255, 255, 0.85)"/><rect x="2" y="11" width="12" height="2" rx="0.5" fill="rgba(255, 255, 255, 0.85)"/></svg><text x="110" y="285" fill="#ffffff" font-size="13" text-anchor="middle" dominant-baseline="middle" font-family="system-ui, sans-serif">PowerEdge R7515</text><rect x="19" y="88" width="182" height="20" fill="#6272A4" rx="2" ry="2"/><svg x="23" y="92" width="12" height="12" viewBox="0 0 16 16"><circle cx="4" cy="5" r="1.5" fill="rgba(255, 255, 255, 0.85)"/><circle cx="8" cy="5" r="1.5" fill="rgba(255, 255, 255, 0.85)"/><circle cx="12" cy="5" r="1.5" fill="rgba(255, 255, 255, 0.85)"/><circle cx="4" cy="11" r="1.5" fill="rgba(255, 255, 255, 0.85)"/><circle cx="8" cy="11" r="1.5" fill="rgba(255, 255, 255, 0.85)"/><circle cx="12" cy="11" r="1.5" fill="rgba(255, 255, 255, 0.85)"/></svg><text x="110" y="98" fill="#ffffff" font-size="11" text-anchor="middle" dominant-baseline="middle" font-family="system-ui, sans-serif">Patch Panel (24-Port)</text><rect x="19" y="374" width="182" height="42" fill="#A84A4A" rx="2" ry="2"/><svg x="23" y="389" width="12" height="12" viewBox="0 0 16 16"><polygon points="9,1 5,8 8,8 7,15 11,6 8,6" fill="rgba(255, 255, 255, 0.85)"/></svg><text x="110" y="395" fill="#ffffff" font-size="13" text-anchor="middle" dominant-baseline="middle" font-family="system-ui, sans-serif">UPS</text><rect x="19" y="880" width="182" height="64" fill="#FFB86C" rx="2" ry="2"/><svg x="23" y="906" width="12" height="12" viewBox="0 0 16 16"><rect x="2" y="4" width="12" height="8" rx="0.5" fill="none" stroke="rgba(255, 255, 255, 0.85)" stroke-width="1.5"/></svg><text x="110" y="912" fill="#ffffff" font-size="13" text-anchor="middle" dominant-baseline="middle" font-family="system-ui, sans-serif">Solar battery</text><rect x="19" y="814" width="182" height="64" fill="#FFB86C" rx="2" ry="2"/><svg x="23" y="840" width="12" height="12" viewBox="0 0 16 16"><rect x="2" y="4" width="12" height="8" rx="0.5" fill="none" stroke="rgba(255, 255, 255, 0.85)" stroke-width="1.5"/></svg><text x="110" y="846" fill="#ffffff" font-size="13" text-anchor="middle" dominant-baseline="middle" font-family="system-ui, sans-serif">Solar battery</text><rect x="19" y="748" width="182" height="64" fill="#FFB86C" rx="2" ry="2"/><svg x="23" y="774" width="12" height="12" viewBox="0 0 16 16"><rect x="2" y="4" width="12" height="8" rx="0.5" fill="none" stroke="rgba(255, 255, 255, 0.85)" stroke-width="1.5"/></svg><text x="110" y="780" fill="#ffffff" font-size="13" text-anchor="middle" dominant-baseline="middle" font-family="system-ui, sans-serif">Solar battery</text><rect x="19" y="682" width="182" height="64" fill="#FFB86C" rx="2" ry="2"/><svg x="23" y="708" width="12" height="12" viewBox="0 0 16 16"><rect x="2" y="4" width="12" height="8" rx="0.5" fill="none" stroke="rgba(255, 255, 255, 0.85)" stroke-width="1.5"/></svg><text x="110" y="714" fill="#ffffff" font-size="13" text-anchor="middle" dominant-baseline="middle" font-family="system-ui, sans-serif">Solar battery</text><rect x="19" y="616" width="182" height="64" fill="#FFB86C" rx="2" ry="2"/><svg x="23" y="642" width="12" height="12" viewBox="0 0 16 16"><rect x="2" y="4" width="12" height="8" rx="0.5" fill="none" stroke="rgba(255, 255, 255, 0.85)" stroke-width="1.5"/></svg><text x="110" y="648" fill="#ffffff" font-size="13" text-anchor="middle" dominant-baseline="middle" font-family="system-ui, sans-serif">Solar battery</text><rect x="19" y="550" width="182" height="64" fill="#FFB86C" rx="2" ry="2"/><svg x="23" y="576" width="12" height="12" viewBox="0 0 16 16"><rect x="2" y="4" width="12" height="8" rx="0.5" fill="none" stroke="rgba(255, 255, 255, 0.85)" stroke-width="1.5"/></svg><text x="110" y="582" fill="#ffffff" font-size="13" text-anchor="middle" dominant-baseline="middle" font-family="system-ui, sans-serif">Solar battery</text><rect x="19" y="110" width="182" height="20" fill="#7B6BA8" rx="2" ry="2"/><svg x="23" y="114" width="12" height="12" viewBox="0 0 16 16"><circle cx="8" cy="4" r="2" fill="rgba(255, 255, 255, 0.85)"/><circle cx="4" cy="12" r="2" fill="rgba(255, 255, 255, 0.85)"/><circle cx="12" cy="12" r="2" fill="rgba(255, 255, 255, 0.85)"/><line x1="8" y1="6" x2="4" y2="10" stroke="rgba(255, 255, 255, 0.85)" stroke-width="1.5"/><line x1="8" y1="6" x2="12" y2="10" stroke="rgba(255, 255, 255, 0.85)" stroke-width="1.5"/></svg><text x="110" y="120" fill="#ffffff" font-size="13" text-anchor="middle" dominant-baseline="middle" font-family="system-ui, sans-serif">USW-Pro-24-PoE</text><rect x="19" y="44" width="182" height="20" fill="#7B6BA8" rx="2" ry="2"/><svg x="23" y="48" width="12" height="12" viewBox="0 0 16 16"><circle cx="8" cy="4" r="2" fill="rgba(255, 255, 255, 0.85)"/><circle cx="4" cy="12" r="2" fill="rgba(255, 255, 255, 0.85)"/><circle cx="12" cy="12" r="2" fill="rgba(255, 255, 255, 0.85)"/><line x1="8" y1="6" x2="4" y2="10" stroke="rgba(255, 255, 255, 0.85)" stroke-width="1.5"/><line x1="8" y1="6" x2="12" y2="10" stroke="rgba(255, 255, 255, 0.85)" stroke-width="1.5"/></svg><text x="110" y="54" fill="#ffffff" font-size="12" text-anchor="middle" dominant-baseline="middle" font-family="system-ui, sans-serif">Switch (24-Port PoE)</text><rect x="19" y="176" width="182" height="20" fill="#4A7A8A" rx="2" ry="2"/><svg x="23" y="180" width="12" height="12" viewBox="0 0 16 16"><rect x="2" y="3" width="12" height="3" rx="0.5" fill="rgba(255, 255, 255, 0.85)"/><rect x="2" y="7" width="12" height="3" rx="0.5" fill="rgba(255, 255, 255, 0.85)"/><rect x="2" y="11" width="12" height="2" rx="0.5" fill="rgba(255, 255, 255, 0.85)"/></svg><text x="110" y="186" fill="#ffffff" font-size="11" text-anchor="middle" dominant-baseline="middle" font-family="system-ui, sans-serif">IPFire router/firewall</text><text class="rack-name" x="110" y="-5" fill="#1a1a1a" font-size="13" text-anchor="middle" font-family="system-ui, sans-serif">Self-hosted Home</text></g></svg>